Coordinates
version=1
nRows=8
nColumns=42
inDegrees=yes

Units are S.I. units (second, meters, Newtons, ...)
If the header above contains a line with 'inDegrees', this indicates whether rotational values are in degrees (yes) or radians (no).

endheader
time	pelvis_tilt	pelvis_list	pelvis_rotation	pelvis_tx	pelvis_ty	pelvis_tz	hip_flexion_r	hip_adduction_r	hip_rotation_r	knee_angle_r	knee_adduction_r	knee_angle_r_beta	ankle_angle_r	subtalar_angle_r	mtp_angle_r	hip_flexion_l	hip_adduction_l	hip_rotation_l	knee_angle_l	knee_adduction_l	knee_angle_l_beta	ankle_angle_l	subtalar_angle_l	mtp_angle_l	lumbar_extension	lumbar_bending	lumbar_rotation	arm_flex_r	arm_add_r	arm_rot_r	elbow_flex_r	pro_sup_r	wrist_flex_r	wrist_dev_r	arm_flex_l	arm_add_l	arm_rot_l	elbow_flex_l	pro_sup_l	wrist_flex_l	wrist_dev_l
      1.12000000	     14.89263399	      1.11890746	     -3.04337796	      0.13746637	      0.89295506	     -0.30986801	     -3.12437921	     -3.48058819	     -5.39058015	     64.10994040	     -5.87870079	      1.11892954	      7.16181068	    -18.45690794	     -7.51832368	     -8.29811046	      4.72205104	    -13.81865334	     19.71045165	     -0.83600069	      0.34401228	     19.90517829	      4.98824634	     -7.51832368	    -30.28022670	     -3.72223697	     -0.99453745	     -0.60462753	     -3.61541519	    -17.31308854	     43.22950064	     90.00000001	      0.00000000	      0.00000000	     -0.43163826	     -4.18611314	    -20.13041616	     38.79308050	     90.00000001	      0.00000000	      0.00000000
      1.13000000	     15.00932735	      0.89859234	     -2.81015930	      0.14780149	      0.89388045	     -0.30978403	     -1.73913839	     -3.18677784	     -6.05435740	     63.41707988	     -6.20042775	      1.10683685	      8.73492854	    -18.43309033	     -7.51791127	     -9.78099991	      4.47535778	    -13.31077634	     18.55235467	     -0.51567404	      0.32379967	     20.13078226	      5.48364789	     -7.51791127	    -30.47023455	     -3.36926075	     -1.43420738	     -0.84388705	     -3.61990285	    -17.47652849	     43.08661843	     90.00000001	      0.00000000	      0.00000000	     -0.05622706	     -4.25599281	    -19.82027162	     39.10711480	     90.00000001	      0.00000000	      0.00000000
      1.14000000	     15.05815629	      0.70838877	     -2.60786436	      0.15818148	      0.89450544	     -0.30956718	     -0.35300758	     -2.90890885	     -6.83879344	     62.38766945	     -6.60885765	      1.08887024	      9.83604833	    -18.32189253	     -7.51574302	    -11.16456097	      4.25922540	    -12.96561798	     17.43670685	     -0.27500920	      0.30432795	     20.24017373	      5.64586163	     -7.51574302	    -30.57340241	     -3.07442769	     -1.86559615	     -0.90524846	     -3.38804190	    -18.49538083	     42.75224645	     90.00000001	      0.00000000	      0.00000000	      0.02657826	     -4.61452937	    -18.29677272	     39.78761714	     90.00000001	      0.00000000	      0.00000000
      1.15000000	     15.07790016	      0.46301267	     -2.48508552	      0.16854343	      0.89488178	     -0.30919031	      0.98897773	     -2.54284028	     -7.32881035	     61.09013122	     -6.78857327	      1.06622393	     10.68633615	    -18.40982239	     -7.51540042	    -12.47980992	      3.95660209	    -12.96355521	     16.39981436	     -0.06527123	      0.28623076	     20.44551142	      6.18708107	     -7.51540042	    -30.64654456	     -2.76776591	     -2.16002957	     -1.17693750	     -3.42400825	    -18.59459683	     42.63973928	     90.00000001	      0.00000000	      0.00000000	      0.41067434	     -4.65617989	    -18.16830258	     40.06503940	     90.00000001	      0.00000000	      0.00000000
      1.16000000	     15.12228098	      0.23861144	     -2.35179353	      0.17903122	      0.89506134	     -0.30869495	      2.18036160	     -2.17881567	     -7.99447746	     59.42271996	     -7.06586306	      1.03712211	     11.29904253	    -18.31112068	     -7.51495584	    -13.84715772	      3.66203786	    -13.00713256	     15.31253227	      0.13278020	      0.26725410	     20.70644939	      6.97285643	     -7.51495584	    -30.72424410	     -2.49863798	     -2.49502015	     -1.41377943	     -3.38274176	    -18.83105398	     42.47314801	     90.00000001	      0.00000000	      0.00000000	      0.70412253	     -4.76643615	    -17.93933776	     40.44594995	     90.00000001	      0.00000000	      0.00000000
      1.17000000	     15.04939240	      0.01718468	     -2.34007528	      0.18943221	      0.89485702	     -0.30806685	      3.46956526	     -1.79074730	     -8.39402064	     57.59052336	     -7.18875976	      1.00514425	     11.69026546	    -18.31269807	     -7.51469261	    -15.01151833	      3.39462975	    -13.41828421	     14.35982210	      0.24012138	      0.25062618	     20.92780448	      7.46057910	     -7.51469261	    -30.68494554	     -2.27690172	     -2.69567852	     -1.66201287	     -3.38545138	    -18.99398412	     42.33890064	     90.00000001	      0.00000000	      0.00000000	      1.01943360	     -4.84267948	    -17.77453380	     40.79960759	     90.00000001	      0.00000000	      0.00000000
      1.18000000	     15.18863556	     -0.27006039	     -2.26288428	      0.20002743	      0.89466606	     -0.30727870	      4.35292180	     -1.32030751	     -9.00309189	     55.37376018	     -7.35643462	      0.96645443	     11.81177159	    -18.24186438	     -7.51436102	    -16.54071535	      2.97014753	    -13.66240118	     13.21023514	      0.59051960	      0.23056210	     21.19634626	      8.47202204	     -7.51436102	    -30.86565734	     -2.00245745	     -2.85735149	     -1.88991468	     -3.36338265	    -19.29720581	     42.10036393	     90.00000001	      0.00000000	      0.00000000	      1.34491343	     -4.94750224	    -17.50549897	     41.28526479	     90.00000001	      0.00000000	      0.00000000
      1.19000000	     15.25751582	     -0.44573606	     -2.25648928	      0.21064978	      0.89408598	     -0.30631942	      5.29711593	     -0.99172656	     -9.92556847	     52.98570338	     -7.72389236	      0.92477498	     11.24431006	    -18.11044600	     -7.51322882	    -17.80209530	      2.59117515	    -14.78814126	     12.45654172	      0.84842350	      0.21740767	     21.81901333	     11.01158681	     -7.51322882	    -30.95363304	     -1.89032233	     -2.99990891	     -1.91096783	     -3.02334738	    -20.70297102	     41.54047914	     90.00000001	      0.00000000	      0.00000000	      1.35724388	     -5.31741008	    -16.38856252	     42.31450097	     90.00000001	      0.00000000	      0.00000000
